<svg width="123" height="123" viewBox="0 0 123 123" fill="none" xmlns="http://www.w3.org/2000/svg">
<path d="M54.267 21.8905L12.793 50.5455L8.82912 95.8499L107.341 104.47L111.305 59.1632L75.4368 23.7402L54.2695 21.8881L54.267 21.8905Z" fill="white"/>
<path d="M75.4343 23.7426L54.267 21.8904L90.1377 57.2764L111.305 59.1285L75.4368 23.7401L75.4343 23.7426Z" fill="#33308E"/>
<path d="M12.7955 50.5058L54.2695 21.8533L90.1377 57.2714L86.1737 102.578L8.83159 95.8127L12.7955 50.5058Z" fill="#F9A61D"/>
<path d="M107.341 104.468L111.307 59.1261L90.1377 57.274L86.1713 102.615L107.339 104.47L107.341 104.468Z" fill="#33308E"/>
<path d="M54.267 21.8905L12.793 50.5455L8.82912 95.8499L107.341 104.47L111.305 59.1632L75.4368 23.7402L54.2695 21.8881L54.267 21.8905Z" stroke="black" stroke-width="5.37607" stroke-linecap="round" stroke-linejoin="round"/>
<path d="M75.4343 23.7426L54.267 21.8904L90.1377 57.2764L111.305 59.1285L75.4368 23.7401L75.4343 23.7426Z" stroke="black" stroke-width="5.37607" stroke-linecap="round" stroke-linejoin="round"/>
<path d="M12.7955 50.5058L54.2695 21.8533L90.1377 57.2714L86.1737 102.578L8.83159 95.8127L12.7955 50.5058Z" stroke="black" stroke-width="5.37607" stroke-linecap="round" stroke-linejoin="round"/>
<path d="M107.341 104.468L111.307 59.1261L90.1377 57.274L86.1713 102.615L107.339 104.47L107.341 104.468Z" stroke="black" stroke-width="5.37607" stroke-linecap="round" stroke-linejoin="round"/>
</svg>
