<svg width="125" height="125" viewBox="0 0 125 125" fill="none" xmlns="http://www.w3.org/2000/svg">
<path d="M97.416 36.3521C98.5531 34.8643 99.0587 32.9886 98.8233 31.1308C98.588 29.273 97.6308 27.5826 96.1586 26.4252C94.6865 25.2679 92.8179 24.7367 90.9571 24.9465C89.0963 25.1563 87.3929 26.0904 86.2155 27.5465L90.7364 21.7917C91.327 21.0573 91.7661 20.2131 92.0281 19.3079C92.2902 18.4027 92.3701 17.4545 92.2631 16.5182C92.1562 15.5819 91.8646 14.6761 91.4051 13.8533C90.9457 13.0305 90.3276 12.307 89.5866 11.7248C88.8456 11.1425 87.9964 10.713 87.0883 10.4613C86.1802 10.2095 85.2311 10.1403 84.2961 10.2579C83.3611 10.3754 82.4587 10.6773 81.6411 11.146C80.8236 11.6148 80.1072 12.241 79.5333 12.9886L75.0149 18.7409C75.6084 18.007 76.0501 17.1625 76.3144 16.2564C76.5787 15.3504 76.6603 14.4009 76.5545 13.463C76.4488 12.5251 76.1577 11.6176 75.6983 10.7932C75.2389 9.96877 74.6202 9.24384 73.8782 8.66052C73.1363 8.07721 72.2858 7.64713 71.3762 7.39526C70.4666 7.1434 69.5161 7.07478 68.5797 7.19337C67.6434 7.31197 66.74 7.61543 65.9219 8.08612C65.1039 8.55681 64.3875 9.18535 63.8144 9.93524L40.8554 38.7897L40.7499 22.3295C40.7376 20.3622 39.9695 18.4749 38.6046 17.058C37.2397 15.6412 35.3824 14.8032 33.4169 14.7175C31.5914 14.63 29.796 15.2063 28.3625 16.34C26.929 17.4737 25.9545 19.088 25.619 20.8845C23.699 31.2808 18.6026 50.6437 18.0623 63.3671C17.6904 72.0822 18.7811 84.9715 29.2252 93.8148C48.9474 110.521 67.5362 98.8912 80.6768 81.4809L103.111 52.2897C104.277 50.7897 104.799 48.888 104.563 47.0029C104.327 45.1178 103.351 43.4036 101.851 42.2376C100.352 41.0716 98.4498 40.5492 96.5647 40.7853C94.6796 41.0214 92.9654 41.9967 91.7994 43.4966L97.416 36.3521Z" fill="#F9A61D"/>
<path d="M104.573 47.2812C104.737 49.0733 104.219 50.8613 103.121 52.2871L80.6843 81.4809C67.5437 98.8886 48.9549 110.519 29.2327 93.8148C23.2995 88.7888 20.3869 82.4559 19.0424 76.3242L21.6484 93.0785C23.0733 98.9313 25.9859 104.902 31.6352 109.687C51.3574 126.394 69.9462 114.763 83.0868 97.3531L105.523 68.1594C106.109 67.3986 106.535 66.5277 106.777 65.5985C107.019 64.6694 107.071 63.7011 106.93 62.7513L104.573 47.2812Z" fill="#33308E"/>
<path d="M97.416 36.3521C98.5531 34.8643 99.0587 32.9886 98.8234 31.1308C98.588 29.273 97.6308 27.5826 96.1586 26.4252C94.6865 25.2679 92.8179 24.7367 90.9571 24.9465C89.0963 25.1563 87.3929 26.0904 86.2155 27.5465L90.7364 21.7917C91.327 21.0573 91.7661 20.2131 92.0281 19.3079C92.2902 18.4027 92.3701 17.4545 92.2631 16.5182C92.1562 15.5819 91.8646 14.6761 91.4051 13.8533C90.9457 13.0305 90.3276 12.307 89.5866 11.7248C88.8456 11.1425 87.9964 10.713 87.0883 10.4613C86.1802 10.2095 85.2312 10.1403 84.2961 10.2579C83.3611 10.3754 82.4587 10.6773 81.6411 11.146C80.8236 11.6148 80.1072 12.241 79.5333 12.9886L75.0149 18.7409C75.6084 18.007 76.0501 17.1625 76.3144 16.2564C76.5787 15.3504 76.6603 14.4009 76.5545 13.463C76.4488 12.5251 76.1577 11.6176 75.6983 10.7932C75.2389 9.96877 74.6202 9.24384 73.8782 8.66052C73.1363 8.07721 72.2858 7.64713 71.3762 7.39526C70.4666 7.1434 69.5161 7.07478 68.5797 7.19337C67.6434 7.31197 66.74 7.61543 65.9219 8.08612C65.1039 8.55681 64.3875 9.18535 63.8144 9.93524L40.8554 38.7897L40.7499 22.3295C40.7376 20.3622 39.9695 18.4749 38.6046 17.058C37.2397 15.6412 35.3824 14.8032 33.4169 14.7175C31.5914 14.63 29.796 15.2063 28.3625 16.34C26.929 17.4737 25.9545 19.088 25.619 20.8845C23.699 31.2808 18.6026 50.6437 18.0623 63.3671C17.6904 72.0822 18.7811 84.9715 29.2252 93.8149C48.9474 110.521 67.5362 98.8912 80.6768 81.4809L103.111 52.2897C104.277 50.7897 104.799 48.888 104.563 47.0029C104.327 45.1178 103.351 43.4036 101.851 42.2376C100.352 41.0716 98.4498 40.5492 96.5647 40.7853C94.6796 41.0214 92.9654 41.9967 91.7994 43.4966L97.416 36.3521Z" stroke="black" stroke-width="5.37607" stroke-linecap="round" stroke-linejoin="round"/>
<path d="M104.573 47.2812C104.737 49.0733 104.219 50.8613 103.121 52.2871L80.6843 81.4809C67.5437 98.8886 48.9549 110.519 29.2327 93.8148C23.2995 88.7888 20.3869 82.4559 19.0424 76.3242L21.6484 93.0785C23.0733 98.9313 25.9859 104.902 31.6352 109.687C51.3574 126.394 69.9462 114.763 83.0868 97.3531L105.523 68.1594C106.109 67.3986 106.535 66.5277 106.777 65.5985C107.019 64.6694 107.071 63.7011 106.93 62.7513L104.573 47.2812Z" stroke="black" stroke-width="5.37607" stroke-linecap="round" stroke-linejoin="round"/>
<path d="M75.0149 18.7408L55.0263 44.1726" stroke="black" stroke-width="5.37607" stroke-linecap="round" stroke-linejoin="round"/>
<path d="M68.9635 49.4952L86.2179 27.5464" stroke="black" stroke-width="5.37607" stroke-linecap="round" stroke-linejoin="round"/>
<path d="M97.4185 36.3495L77.4274 61.7813" stroke="black" stroke-width="5.37607" stroke-linecap="round" stroke-linejoin="round"/>
</svg>
